<?xml version="1.0" encoding="utf-8"?>
<!-- Generator: Adobe Illustrator 23.0.2, SVG Export Plug-In . SVG Version: 6.00 Build 0)  -->
<svg version="1.1" id="Layer_1" xmlns="http://www.w3.org/2000/svg" xmlns:xlink="http://www.w3.org/1999/xlink" x="0px" y="0px"
	 viewBox="0 0 550 370" style="enable-background:new 0 0 550 370;" xml:space="preserve">
<style type="text/css">
	.st0{fill:#05445E;}
	.st1{fill:#75E6DA;}
</style>
<path class="st0" d="M111.45,147.77c0,0,21.39-21.39,84.56-15.48l-30.97,110.43c0,0-58.68-10.8-95.15,20.17L111.45,147.77z"/>
<rect x="54.2" y="113.33" class="st0" width="13.65" height="13.65"/>
<rect x="86.59" y="128.41" class="st0" width="13.65" height="13.65"/>
<path class="st0" d="M250.58,219.26c3.6,1.56,6.11,3.2,7.52,4.9c1.41,1.71,2.45,4.34,3.12,7.89c0.87,4.67,2.09,7.82,3.64,9.42
	c1.55,1.61,3.58,2.47,6.09,2.57c0.7,0.05,1.05,0.3,1.05,0.76c0,0.46-0.4,0.68-1.21,0.68c-7.27,0-11.68-0.24-13.22-0.72
	c-1.55-0.48-2.69-3.14-3.45-7.96c-0.7-4.7-1.43-8.13-2.2-10.3c-0.77-2.17-1.99-3.83-3.66-4.99s-4.29-1.73-7.85-1.73
	c-1.35,0-2.88,0.14-4.6,0.43c-0.13,1.63-0.19,3.33-0.19,5.09c0,6.66,0.09,10.97,0.27,12.93c0.18,1.96,0.73,3.38,1.65,4.28
	s2.46,1.37,4.62,1.42c0.93,0.03,1.4,0.25,1.4,0.68c0,0.51-0.57,0.76-1.71,0.76h-19.28c-1.12,0-1.67-0.25-1.67-0.76
	c0-0.45,0.44-0.68,1.32-0.68c1.97,0,3.34-0.3,4.11-0.89c0.77-0.6,1.37-1.52,1.81-2.78c0.44-1.26,0.66-3.54,0.66-6.83l-0.08-7.94
	l0.04-12.1c0-6.17-0.14-10.26-0.41-12.26c-0.27-2-0.76-3.34-1.46-4.03c-0.7-0.69-2.32-1.23-4.87-1.62c-0.55-0.08-0.82-0.3-0.82-0.66
	c0-0.41,0.55-0.62,1.64-0.62l23.06-0.51c6.36,0,10.98,1.22,13.85,3.66s4.3,5.42,4.3,8.95c0,2.23-0.58,4.27-1.73,6.11
	c-1.16,1.84-2.53,3.18-4.11,4.01C256.63,217.25,254.08,218.2,250.58,219.26z M235.82,218.27c4.99-0.1,8.72-0.45,11.22-1.05
	c2.49-0.6,4.61-1.91,6.37-3.93c1.75-2.02,2.63-4.43,2.63-7.2c0-2.93-0.97-5.49-2.92-7.67c-1.95-2.18-5.06-3.27-9.35-3.27
	c-2.34,0-4.92,0.31-7.75,0.93c-0.31,7.14-0.47,12.83-0.47,17.06C235.54,214.58,235.63,216.3,235.82,218.27z"/>
<path class="st0" d="M289.37,219.44c2.52-1.69,4.5-3.29,5.96-4.81c1.45-1.52,3.73-3.95,6.84-7.3c3.1-3.35,4.96-5.58,5.57-6.68
	c0.61-1.1,0.92-1.9,0.92-2.4c0-0.6-0.34-1.14-1.03-1.62c-0.69-0.48-1.5-0.8-2.43-0.95c-1.04-0.16-1.56-0.45-1.56-0.9
	c0-0.47,0.43-0.7,1.29-0.7c0.18,0,0.47-0.01,0.86-0.04c0.96-0.05,3.84-0.08,8.65-0.08c3.3,0,5.6,0.03,6.89,0.1
	c1.3,0.07,1.95,0.31,1.95,0.72c0,0.44-0.36,0.71-1.09,0.82c-2.42,0.34-4.51,0.99-6.29,1.97c-1.78,0.97-4.54,3.26-8.28,6.85
	s-6.96,7.08-9.66,10.46c3,0,5.53,0.42,7.58,1.27c2.05,0.84,3.75,2.3,5.11,4.37c1.36,2.07,2.53,5.57,3.52,10.51
	c1.72,8.29,4.79,12.62,9.22,12.99c0.99,0.08,1.49,0.34,1.49,0.8c0,0.38-0.23,0.57-0.7,0.57l-3.58-0.08c-5.3,0-8.33,0.05-9.11,0.15
	c-1.27-1.69-2.1-3.35-2.47-4.99c-0.38-1.64-0.89-4.5-1.54-8.61c-0.57-3.58-1.51-6.89-2.82-9.93c-1.31-3.04-3.36-4.56-6.13-4.56
	c-1.84,0-3.75,0.6-5.72,1.81c-1.97,1.21-3.12,2.1-3.43,2.69c-0.31,0.58-0.47,4.02-0.47,10.3c0,4.41,0.14,7.14,0.41,8.18
	c0.27,1.04,0.87,1.86,1.79,2.45c0.92,0.6,2.16,0.97,3.72,1.13c0.94,0.1,1.4,0.39,1.4,0.86c0,0.44-0.32,0.66-0.97,0.66l-0.47-0.03
	c-0.73-0.03-3.38-0.05-7.95-0.05c-5.5,0-8.62,0.05-9.35,0.16c-0.36,0.05-0.64,0.08-0.82,0.08c-0.6,0-0.9-0.23-0.9-0.7
	c0-0.42,0.36-0.68,1.09-0.78c1.38-0.18,2.41-0.56,3.1-1.15s1.13-1.26,1.32-2.03c0.19-0.77,0.45-3.33,0.78-7.69
	c0.32-4.36,0.49-8,0.49-10.9c0-3.84-0.04-7.1-0.12-9.78c-0.08-2.67-0.23-5.59-0.47-8.74c-0.23-3.15-0.49-5.05-0.78-5.69
	c-0.29-0.64-0.69-1.13-1.21-1.48c-0.52-0.35-1.74-0.64-3.66-0.88c-0.65-0.08-0.97-0.31-0.97-0.7c0-0.57,0.6-0.86,1.79-0.86
	l3.15-0.04l13.83-0.16c0.7,0,1.05,0.22,1.05,0.65c0,0.25-0.12,0.44-0.35,0.55c-0.23,0.11-0.95,0.25-2.14,0.4
	c-1.22,0.16-1.99,0.31-2.3,0.45c-0.31,0.14-0.62,0.48-0.93,1.01c-0.31,0.53-0.47,1.41-0.47,2.63
	C288.94,202.66,289.08,209.23,289.37,219.44z"/>
<g>
	<g>
		<path class="st1" d="M41.77,133.71L0,220.5c0,0,38.92,7.74,66.22,42.38c0,0-6.93-25.67-53.79-50.53L41.77,133.71z"/>
		<path class="st1" d="M75.39,262.88c0,0,58.37-18.54,102.99,14.77l32.7-125l-11.61-4.89l-29.95,107.27
			C169.52,255.04,116.03,237.62,75.39,262.88z"/>
		<rect x="49.71" y="151.84" class="st1" width="31.99" height="31.99"/>
		<rect x="78.44" y="92.35" class="st1" width="9.98" height="9.98"/>
	</g>
	<path class="st1" d="M350.67,196.54c-2.03-0.1-3.46-0.16-4.29-0.16c-5.61,0-9.68,1.17-12.2,3.52c-2.52,2.35-3.99,4.43-4.4,6.25
		c-0.13,0.65-0.48,0.98-1.04,0.98c-0.26,0-0.5-0.12-0.74-0.38c0.13-3.09,0.64-7.27,1.52-12.52c1.25-0.03,2.04-0.04,2.38-0.04
		c2.02,0,4.74,0.1,8.14,0.31c3.66,0.21,9.27,0.31,16.82,0.31c7.74,0,12.77-0.09,15.11-0.27c2.13-0.21,5.05-0.31,8.76-0.31
		c0.31,1.87,0.52,3.82,0.62,5.84c0.16,2.31,0.31,3.93,0.47,4.87c0.03,0.21,0.04,0.43,0.04,0.66c0,0.62-0.27,0.93-0.81,0.93
		c-0.34,0-0.61-0.11-0.83-0.33c-0.22-0.22-0.72-0.95-1.5-2.2c-1.35-2.1-2.75-3.69-4.21-4.77c-1.46-1.08-3.08-1.77-4.87-2.08
		c-1.79-0.31-5.42-0.52-10.87-0.62c-0.31,3.92-0.47,8.4-0.47,13.44c0,16.67,0.36,26.5,1.07,29.48c0.71,2.99,3.26,4.48,7.65,4.48
		c1.06,0,1.6,0.22,1.6,0.66c0,0.52-0.51,0.78-1.52,0.78h-23.95c-0.62,0-0.93-0.25-0.93-0.74c0-0.49,0.61-0.74,1.83-0.74
		c2.05,0,3.71-0.58,4.97-1.73c1.26-1.15,1.99-2.72,2.18-4.69c0.19-1.97,0.29-7.67,0.29-17.1
		C351.49,212.32,351.22,204.38,350.67,196.54z"/>
</g>
<path class="st1" d="M394.52,212.66c0.13,1.69,0.25,6.57,0.35,14.64c0.05,5.04,0.18,8.39,0.39,10.07c0.21,1.67,0.86,3.06,1.97,4.15
	c1.1,1.09,2.37,1.64,3.8,1.64c1.87,0,3.74-0.87,5.63-2.61c1.88-1.74,3.04-3.6,3.48-5.59c0.44-1.99,0.66-6.55,0.66-13.69
	c0-3.32-0.21-5.34-0.62-6.04c-0.41-0.7-1.43-1.1-3.04-1.21c-0.6-0.03-0.9-0.25-0.9-0.66c0-0.29,0.09-0.47,0.27-0.56
	c0.18-0.09,0.77-0.14,1.75-0.14h7.79c0.23,2.83,0.35,6,0.35,9.5l-0.31,14.64c0,3.01,0.25,4.91,0.76,5.69
	c0.51,0.78,1.3,1.22,2.4,1.32c0.67,0.1,1.01,0.36,1.01,0.78c0,0.47-0.66,0.7-1.99,0.7h-6.15c-1.07,0-1.6-0.35-1.6-1.05
	c0-0.21,0.01-0.44,0.04-0.7c0.08-0.78,0.12-1.57,0.12-2.38c0-0.68-0.04-1.66-0.12-2.96c-1.97,2.54-4.02,4.45-6.15,5.72
	c-2.13,1.27-4.35,1.91-6.66,1.91c-1.97,0-3.63-0.48-4.97-1.44c-1.34-0.96-2.22-2.12-2.65-3.49c-0.43-1.36-0.72-4.76-0.88-10.18
	c-0.16-5.43-0.23-9.68-0.23-12.77c0-1.69-0.09-2.74-0.27-3.15c-0.18-0.42-0.75-0.65-1.71-0.7c-1.04-0.08-1.56-0.34-1.56-0.78
	c0-0.44,0.62-0.66,1.87-0.66H394.52z"/>
<path class="st1" d="M438.07,215.5c-0.36,5.75-0.55,11.39-0.55,16.93c0,4.26,0.51,7.05,1.53,8.35c1.02,1.3,2.48,1.95,4.38,1.95
	c1.38,0,2.91-0.51,4.58-1.52c0.6-0.36,0.97-0.55,1.1-0.55c0.34,0,0.51,0.18,0.51,0.55c0,0.62-0.92,1.61-2.77,2.96
	s-4.11,2.03-6.8,2.03c-2.66,0-4.65-0.92-5.98-2.77c-1.33-1.85-1.99-4.6-1.99-8.27c0-3.82,0.23-10.37,0.7-19.65
	c-0.18-0.05-1.42-0.14-3.7-0.27l-2.34-0.16c-0.57-0.03-0.86-0.22-0.86-0.58c0-0.34,0.32-0.61,0.97-0.82
	c1.06-0.39,2.85-1.53,5.35-3.42c2.51-1.89,3.97-4.56,4.39-8c0.11-0.91,0.4-1.36,0.88-1.36s0.72,0.36,0.72,1.09
	c0,0.23-0.01,0.48-0.04,0.74c-0.08,1.01-0.12,2.17-0.12,3.49l0.04,6.06l8.53-0.12c1.45,0,2.21,0.17,2.26,0.51
	c-0.03,1.2-0.22,1.95-0.58,2.26C446.92,214.92,443.52,215.11,438.07,215.5z"/>
<path class="st1" d="M453.26,229.12c0-4.57,1.65-8.59,4.95-12.06c3.3-3.47,7.35-5.21,12.15-5.21c4.52,0,8.41,1.56,11.66,4.67
	c3.26,3.11,4.89,7,4.89,11.67c0,4.72-1.71,8.86-5.14,12.43c-3.43,3.57-7.43,5.35-12,5.35c-4.52,0-8.4-1.64-11.64-4.92
	C454.88,237.76,453.26,233.78,453.26,229.12z M459.57,228.88c0,4.46,1.03,8.17,3.1,11.13c2.06,2.96,4.61,4.43,7.65,4.43
	c2.78,0,5.22-1.39,7.34-4.16c2.12-2.77,3.17-6.46,3.17-11.05c0-4.1-1.02-7.75-3.06-10.95c-2.04-3.2-4.68-4.8-7.93-4.8
	c-3.01,0-5.48,1.46-7.4,4.38C460.53,220.77,459.57,224.45,459.57,228.88z"/>
<path class="st1" d="M503.3,220.77c1.64-2.91,3.38-5.1,5.24-6.55c1.86-1.46,3.81-2.18,5.86-2.18c1.43,0,2.66,0.51,3.7,1.54
	c1.04,1.03,1.56,2.19,1.56,3.49c0,2.47-1.05,3.7-3.16,3.7c-0.99,0-1.82-0.69-2.49-2.06c-0.83-1.74-1.93-2.61-3.31-2.61
	c-1.3,0-2.64,0.73-4.01,2.18s-2.3,3.05-2.77,4.78c-0.47,1.73-0.7,5.35-0.7,10.86c0,5.04,0.21,7.94,0.62,8.68
	c0.42,0.74,1.48,1.22,3.19,1.42c0.47,0.05,0.7,0.23,0.7,0.55c0,0.55-0.61,0.82-1.83,0.82h-12.42c-0.88,0-1.32-0.22-1.32-0.66
	c0-0.42,0.58-0.65,1.75-0.7c1.63-0.1,2.65-0.61,3.04-1.52c0.39-0.91,0.58-4.26,0.58-10.06c0-8.5-0.18-13.61-0.53-15.33
	c-0.35-1.72-1.66-2.63-3.91-2.73c-0.93-0.05-1.4-0.3-1.4-0.74c0-0.23,0.1-0.41,0.29-0.53c0.19-0.12,1.38-0.24,3.56-0.37l7.17-0.39
	C502.9,213.75,503.1,216.56,503.3,220.77z"/>
<path class="st1" d="M550,235.08c0,3.01-1.11,5.59-3.34,7.76c-2.23,2.16-4.87,3.25-7.93,3.25c-1.81,0-3.98-0.58-6.49-1.75
	c-1.37-0.62-2.19-0.94-2.45-0.94c-0.44,0-0.83,0.27-1.17,0.82c-0.42,0.73-0.82,1.09-1.19,1.09c-0.32,0-0.52-0.37-0.6-1.11
	c-0.08-0.74-0.13-2.42-0.16-5.04c-0.03-2.26-0.07-3.71-0.12-4.36c0-0.96,0.25-1.44,0.76-1.44c0.29,0,0.52,0.25,0.68,0.74
	c1.01,2.96,2.42,5.47,4.25,7.54c1.82,2.06,3.96,3.1,6.42,3.1c1.73,0,3.27-0.54,4.61-1.62c1.34-1.08,2.02-2.54,2.02-4.38
	c0-2.86-2.47-5.39-7.42-7.59c-3.39-1.52-5.66-2.63-6.8-3.33c-1.14-0.7-2.03-1.65-2.68-2.85c-0.65-1.2-0.97-2.5-0.97-3.9
	c0-2.68,1.01-4.92,3.04-6.73c2.03-1.81,4.49-2.71,7.38-2.71c2.13,0,4.48,0.66,7.02,1.99c0.42,0.21,0.78,0.31,1.09,0.31
	c0.26,0,0.54-0.21,0.86-0.64c0.3-0.4,0.54-0.6,0.72-0.6c0.23,0,0.4,0.1,0.53,0.29c0.13,0.2,0.27,1.34,0.42,3.44
	c0.15,2.1,0.23,3.83,0.23,5.18c0,0.83-0.22,1.25-0.66,1.25c-0.39,0-0.7-0.38-0.93-1.13c-0.21-0.7-0.83-2.03-1.87-3.99
	c-1.04-1.97-2.17-3.22-3.41-3.76c-1.23-0.54-2.45-0.81-3.64-0.81c-1.87,0-3.4,0.45-4.6,1.36c-1.19,0.91-1.79,2.09-1.79,3.54
	c0,0.91,0.25,1.72,0.74,2.45c0.49,0.73,0.95,1.27,1.38,1.63c0.43,0.36,2.9,1.56,7.42,3.6c2.8,1.27,4.65,2.25,5.53,2.93
	c0.88,0.69,1.62,1.61,2.22,2.78C549.7,232.59,550,233.81,550,235.08z"/>
</svg>
